<mxfile host="app.diagrams.net" modified="2024-05-02T13:49:27.188Z" agent="Mozilla/5.0 (Windows NT 10.0; Win64; x64) AppleWebKit/537.36 (KHTML, like Gecko) Chrome/124.0.0.0 Safari/537.36" etag="AdeWPhYwEUR5wvPqtsEZ" version="24.3.1" type="device">
  <diagram name="PÃ¡gina-1" id="Q2nlpTWYa1sI9tfoLPpt">
    <mxGraphModel dx="2261" dy="772" grid="1" gridSize="10" guides="1" tooltips="1" connect="1" arrows="1" fold="1" page="1" pageScale="1" pageWidth="827" pageHeight="1169" math="0" shadow="0">
      <root>
        <mxCell id="0" />
        <mxCell id="1" parent="0" />
        <mxCell id="WOxjRV0MUydzFHydmVLj-1" value="Tabela Usuario" style="swimlane;fontStyle=0;childLayout=stackLayout;horizontal=1;startSize=26;fillColor=none;horizontalStack=0;resizeParent=1;resizeParentMax=0;resizeLast=0;collapsible=1;marginBottom=0;whiteSpace=wrap;html=1;" parent="1" vertex="1">
          <mxGeometry x="-530" y="400" width="200" height="156" as="geometry" />
        </mxCell>
        <mxCell id="7uqhmthfOJYIlvBmELT8-11" value="id: PositiveIntegerField" style="text;strokeColor=none;fillColor=none;align=left;verticalAlign=top;spacingLeft=4;spacingRight=4;overflow=hidden;rotatable=0;points=[[0,0.5],[1,0.5]];portConstraint=eastwest;whiteSpace=wrap;html=1;" parent="WOxjRV0MUydzFHydmVLj-1" vertex="1">
          <mxGeometry y="26" width="200" height="26" as="geometry" />
        </mxCell>
        <mxCell id="WOxjRV0MUydzFHydmVLj-27" value="pri_nome: CharField" style="text;strokeColor=none;fillColor=none;align=left;verticalAlign=top;spacingLeft=4;spacingRight=4;overflow=hidden;rotatable=0;points=[[0,0.5],[1,0.5]];portConstraint=eastwest;whiteSpace=wrap;html=1;" parent="WOxjRV0MUydzFHydmVLj-1" vertex="1">
          <mxGeometry y="52" width="200" height="26" as="geometry" />
        </mxCell>
        <mxCell id="WOxjRV0MUydzFHydmVLj-5" value="ult_nome: CharField" style="text;strokeColor=none;fillColor=none;align=left;verticalAlign=top;spacingLeft=4;spacingRight=4;overflow=hidden;rotatable=0;points=[[0,0.5],[1,0.5]];portConstraint=eastwest;whiteSpace=wrap;html=1;" parent="WOxjRV0MUydzFHydmVLj-1" vertex="1">
          <mxGeometry y="78" width="200" height="26" as="geometry" />
        </mxCell>
        <mxCell id="WOxjRV0MUydzFHydmVLj-3" value="email: EmailField" style="text;strokeColor=none;fillColor=none;align=left;verticalAlign=top;spacingLeft=4;spacingRight=4;overflow=hidden;rotatable=0;points=[[0,0.5],[1,0.5]];portConstraint=eastwest;whiteSpace=wrap;html=1;" parent="WOxjRV0MUydzFHydmVLj-1" vertex="1">
          <mxGeometry y="104" width="200" height="26" as="geometry" />
        </mxCell>
        <mxCell id="WOxjRV0MUydzFHydmVLj-4" value="senha: CharField" style="text;strokeColor=none;fillColor=none;align=left;verticalAlign=top;spacingLeft=4;spacingRight=4;overflow=hidden;rotatable=0;points=[[0,0.5],[1,0.5]];portConstraint=eastwest;whiteSpace=wrap;html=1;" parent="WOxjRV0MUydzFHydmVLj-1" vertex="1">
          <mxGeometry y="130" width="200" height="26" as="geometry" />
        </mxCell>
        <mxCell id="WOxjRV0MUydzFHydmVLj-9" value="Tabela CategoriasProdutos" style="swimlane;fontStyle=0;childLayout=stackLayout;horizontal=1;startSize=26;fillColor=none;horizontalStack=0;resizeParent=1;resizeParentMax=0;resizeLast=0;collapsible=1;marginBottom=0;whiteSpace=wrap;html=1;" parent="1" vertex="1">
          <mxGeometry x="200" y="480" width="180" height="52" as="geometry" />
        </mxCell>
        <mxCell id="WOxjRV0MUydzFHydmVLj-10" value="nome: CharField" style="text;strokeColor=none;fillColor=none;align=left;verticalAlign=top;spacingLeft=4;spacingRight=4;overflow=hidden;rotatable=0;points=[[0,0.5],[1,0.5]];portConstraint=eastwest;whiteSpace=wrap;html=1;" parent="WOxjRV0MUydzFHydmVLj-9" vertex="1">
          <mxGeometry y="26" width="180" height="26" as="geometry" />
        </mxCell>
        <mxCell id="WOxjRV0MUydzFHydmVLj-17" value="Tabela Produtos" style="swimlane;fontStyle=0;childLayout=stackLayout;horizontal=1;startSize=26;fillColor=none;horizontalStack=0;resizeParent=1;resizeParentMax=0;resizeLast=0;collapsible=1;marginBottom=0;whiteSpace=wrap;html=1;" parent="1" vertex="1">
          <mxGeometry x="200" y="643" width="180" height="208" as="geometry" />
        </mxCell>
        <mxCell id="WOxjRV0MUydzFHydmVLj-32" value="id: PositiveIntegerField" style="text;strokeColor=none;fillColor=none;align=left;verticalAlign=top;spacingLeft=4;spacingRight=4;overflow=hidden;rotatable=0;points=[[0,0.5],[1,0.5]];portConstraint=eastwest;whiteSpace=wrap;html=1;" parent="WOxjRV0MUydzFHydmVLj-17" vertex="1">
          <mxGeometry y="26" width="180" height="26" as="geometry" />
        </mxCell>
        <mxCell id="WOxjRV0MUydzFHydmVLj-18" value="nome: CharField" style="text;strokeColor=none;fillColor=none;align=left;verticalAlign=top;spacingLeft=4;spacingRight=4;overflow=hidden;rotatable=0;points=[[0,0.5],[1,0.5]];portConstraint=eastwest;whiteSpace=wrap;html=1;" parent="WOxjRV0MUydzFHydmVLj-17" vertex="1">
          <mxGeometry y="52" width="180" height="26" as="geometry" />
        </mxCell>
        <mxCell id="WOxjRV0MUydzFHydmVLj-26" value="descricao: TextField" style="text;strokeColor=none;fillColor=none;align=left;verticalAlign=top;spacingLeft=4;spacingRight=4;overflow=hidden;rotatable=0;points=[[0,0.5],[1,0.5]];portConstraint=eastwest;whiteSpace=wrap;html=1;" parent="WOxjRV0MUydzFHydmVLj-17" vertex="1">
          <mxGeometry y="78" width="180" height="26" as="geometry" />
        </mxCell>
        <mxCell id="WOxjRV0MUydzFHydmVLj-19" value="categoria: ForeignKey" style="text;strokeColor=none;fillColor=none;align=left;verticalAlign=top;spacingLeft=4;spacingRight=4;overflow=hidden;rotatable=0;points=[[0,0.5],[1,0.5]];portConstraint=eastwest;whiteSpace=wrap;html=1;" parent="WOxjRV0MUydzFHydmVLj-17" vertex="1">
          <mxGeometry y="104" width="180" height="26" as="geometry" />
        </mxCell>
        <mxCell id="7uqhmthfOJYIlvBmELT8-20" value="sub_categoria: ForeignKey" style="text;strokeColor=none;fillColor=none;align=left;verticalAlign=top;spacingLeft=4;spacingRight=4;overflow=hidden;rotatable=0;points=[[0,0.5],[1,0.5]];portConstraint=eastwest;whiteSpace=wrap;html=1;" parent="WOxjRV0MUydzFHydmVLj-17" vertex="1">
          <mxGeometry y="130" width="180" height="26" as="geometry" />
        </mxCell>
        <mxCell id="WOxjRV0MUydzFHydmVLj-31" value="preco: FloatField" style="text;strokeColor=none;fillColor=none;align=left;verticalAlign=top;spacingLeft=4;spacingRight=4;overflow=hidden;rotatable=0;points=[[0,0.5],[1,0.5]];portConstraint=eastwest;whiteSpace=wrap;html=1;" parent="WOxjRV0MUydzFHydmVLj-17" vertex="1">
          <mxGeometry y="156" width="180" height="26" as="geometry" />
        </mxCell>
        <mxCell id="WOxjRV0MUydzFHydmVLj-33" value="estoque: PositiveIntegerField" style="text;strokeColor=none;fillColor=none;align=left;verticalAlign=top;spacingLeft=4;spacingRight=4;overflow=hidden;rotatable=0;points=[[0,0.5],[1,0.5]];portConstraint=eastwest;whiteSpace=wrap;html=1;" parent="WOxjRV0MUydzFHydmVLj-17" vertex="1">
          <mxGeometry y="182" width="180" height="26" as="geometry" />
        </mxCell>
        <mxCell id="WOxjRV0MUydzFHydmVLj-24" value="Tabela Compras" style="swimlane;fontStyle=0;childLayout=stackLayout;horizontal=1;startSize=26;fillColor=none;horizontalStack=0;resizeParent=1;resizeParentMax=0;resizeLast=0;collapsible=1;marginBottom=0;whiteSpace=wrap;html=1;" parent="1" vertex="1">
          <mxGeometry x="-210" y="556" width="190" height="182" as="geometry" />
        </mxCell>
        <mxCell id="WOxjRV0MUydzFHydmVLj-25" value="id: PositiveIntegerField" style="text;strokeColor=none;fillColor=none;align=left;verticalAlign=top;spacingLeft=4;spacingRight=4;overflow=hidden;rotatable=0;points=[[0,0.5],[1,0.5]];portConstraint=eastwest;whiteSpace=wrap;html=1;" parent="WOxjRV0MUydzFHydmVLj-24" vertex="1">
          <mxGeometry y="26" width="190" height="26" as="geometry" />
        </mxCell>
        <mxCell id="7uqhmthfOJYIlvBmELT8-24" value="produtos: ManyToMany" style="text;strokeColor=none;fillColor=none;align=left;verticalAlign=top;spacingLeft=4;spacingRight=4;overflow=hidden;rotatable=0;points=[[0,0.5],[1,0.5]];portConstraint=eastwest;whiteSpace=wrap;html=1;" parent="WOxjRV0MUydzFHydmVLj-24" vertex="1">
          <mxGeometry y="52" width="190" height="26" as="geometry" />
        </mxCell>
        <mxCell id="WOxjRV0MUydzFHydmVLj-30" value="data: DateTimeField" style="text;strokeColor=none;fillColor=none;align=left;verticalAlign=top;spacingLeft=4;spacingRight=4;overflow=hidden;rotatable=0;points=[[0,0.5],[1,0.5]];portConstraint=eastwest;whiteSpace=wrap;html=1;" parent="WOxjRV0MUydzFHydmVLj-24" vertex="1">
          <mxGeometry y="78" width="190" height="26" as="geometry" />
        </mxCell>
        <mxCell id="WOxjRV0MUydzFHydmVLj-34" value="recibo: FileField" style="text;strokeColor=none;fillColor=none;align=left;verticalAlign=top;spacingLeft=4;spacingRight=4;overflow=hidden;rotatable=0;points=[[0,0.5],[1,0.5]];portConstraint=eastwest;whiteSpace=wrap;html=1;" parent="WOxjRV0MUydzFHydmVLj-24" vertex="1">
          <mxGeometry y="104" width="190" height="26" as="geometry" />
        </mxCell>
        <mxCell id="WOxjRV0MUydzFHydmVLj-35" value="cliente: ForeignKey" style="text;strokeColor=none;fillColor=none;align=left;verticalAlign=top;spacingLeft=4;spacingRight=4;overflow=hidden;rotatable=0;points=[[0,0.5],[1,0.5]];portConstraint=eastwest;whiteSpace=wrap;html=1;" parent="WOxjRV0MUydzFHydmVLj-24" vertex="1">
          <mxGeometry y="130" width="190" height="26" as="geometry" />
        </mxCell>
        <mxCell id="7uqhmthfOJYIlvBmELT8-10" value="pagmnt_realizado: BooleanField" style="text;strokeColor=none;fillColor=none;align=left;verticalAlign=top;spacingLeft=4;spacingRight=4;overflow=hidden;rotatable=0;points=[[0,0.5],[1,0.5]];portConstraint=eastwest;whiteSpace=wrap;html=1;" parent="WOxjRV0MUydzFHydmVLj-24" vertex="1">
          <mxGeometry y="156" width="190" height="26" as="geometry" />
        </mxCell>
        <mxCell id="7uqhmthfOJYIlvBmELT8-1" value="Tabela Cliente" style="swimlane;fontStyle=0;childLayout=stackLayout;horizontal=1;startSize=26;fillColor=none;horizontalStack=0;resizeParent=1;resizeParentMax=0;resizeLast=0;collapsible=1;marginBottom=0;whiteSpace=wrap;html=1;" parent="1" vertex="1">
          <mxGeometry x="-530" y="630" width="200" height="260" as="geometry" />
        </mxCell>
        <mxCell id="7uqhmthfOJYIlvBmELT8-2" value="id: PositiveIntegerField" style="text;strokeColor=none;fillColor=none;align=left;verticalAlign=top;spacingLeft=4;spacingRight=4;overflow=hidden;rotatable=0;points=[[0,0.5],[1,0.5]];portConstraint=eastwest;whiteSpace=wrap;html=1;" parent="7uqhmthfOJYIlvBmELT8-1" vertex="1">
          <mxGeometry y="26" width="200" height="26" as="geometry" />
        </mxCell>
        <mxCell id="7uqhmthfOJYIlvBmELT8-9" value="foto: ImageField" style="text;strokeColor=none;fillColor=none;align=left;verticalAlign=top;spacingLeft=4;spacingRight=4;overflow=hidden;rotatable=0;points=[[0,0.5],[1,0.5]];portConstraint=eastwest;whiteSpace=wrap;html=1;" parent="7uqhmthfOJYIlvBmELT8-1" vertex="1">
          <mxGeometry y="52" width="200" height="26" as="geometry" />
        </mxCell>
        <mxCell id="7uqhmthfOJYIlvBmELT8-3" value="nome_completo: CharField" style="text;strokeColor=none;fillColor=none;align=left;verticalAlign=top;spacingLeft=4;spacingRight=4;overflow=hidden;rotatable=0;points=[[0,0.5],[1,0.5]];portConstraint=eastwest;whiteSpace=wrap;html=1;" parent="7uqhmthfOJYIlvBmELT8-1" vertex="1">
          <mxGeometry y="78" width="200" height="26" as="geometry" />
        </mxCell>
        <mxCell id="7uqhmthfOJYIlvBmELT8-7" value="cpf: PositiveIntegerField" style="text;strokeColor=none;fillColor=none;align=left;verticalAlign=top;spacingLeft=4;spacingRight=4;overflow=hidden;rotatable=0;points=[[0,0.5],[1,0.5]];portConstraint=eastwest;whiteSpace=wrap;html=1;" parent="7uqhmthfOJYIlvBmELT8-1" vertex="1">
          <mxGeometry y="104" width="200" height="26" as="geometry" />
        </mxCell>
        <mxCell id="7uqhmthfOJYIlvBmELT8-12" value="data_nascimento: DateField" style="text;strokeColor=none;fillColor=none;align=left;verticalAlign=top;spacingLeft=4;spacingRight=4;overflow=hidden;rotatable=0;points=[[0,0.5],[1,0.5]];portConstraint=eastwest;whiteSpace=wrap;html=1;" parent="7uqhmthfOJYIlvBmELT8-1" vertex="1">
          <mxGeometry y="130" width="200" height="26" as="geometry" />
        </mxCell>
        <mxCell id="7uqhmthfOJYIlvBmELT8-6" value="endereco: CharField" style="text;strokeColor=none;fillColor=none;align=left;verticalAlign=top;spacingLeft=4;spacingRight=4;overflow=hidden;rotatable=0;points=[[0,0.5],[1,0.5]];portConstraint=eastwest;whiteSpace=wrap;html=1;" parent="7uqhmthfOJYIlvBmELT8-1" vertex="1">
          <mxGeometry y="156" width="200" height="26" as="geometry" />
        </mxCell>
        <mxCell id="7uqhmthfOJYIlvBmELT8-8" value="telefone: PositiveIntegerField" style="text;strokeColor=none;fillColor=none;align=left;verticalAlign=top;spacingLeft=4;spacingRight=4;overflow=hidden;rotatable=0;points=[[0,0.5],[1,0.5]];portConstraint=eastwest;whiteSpace=wrap;html=1;" parent="7uqhmthfOJYIlvBmELT8-1" vertex="1">
          <mxGeometry y="182" width="200" height="26" as="geometry" />
        </mxCell>
        <mxCell id="7uqhmthfOJYIlvBmELT8-4" value="email: EmailField" style="text;strokeColor=none;fillColor=none;align=left;verticalAlign=top;spacingLeft=4;spacingRight=4;overflow=hidden;rotatable=0;points=[[0,0.5],[1,0.5]];portConstraint=eastwest;whiteSpace=wrap;html=1;" parent="7uqhmthfOJYIlvBmELT8-1" vertex="1">
          <mxGeometry y="208" width="200" height="26" as="geometry" />
        </mxCell>
        <mxCell id="7uqhmthfOJYIlvBmELT8-15" value="usuario: OneToOneField" style="text;strokeColor=none;fillColor=none;align=left;verticalAlign=top;spacingLeft=4;spacingRight=4;overflow=hidden;rotatable=0;points=[[0,0.5],[1,0.5]];portConstraint=eastwest;whiteSpace=wrap;html=1;" parent="7uqhmthfOJYIlvBmELT8-1" vertex="1">
          <mxGeometry y="234" width="200" height="26" as="geometry" />
        </mxCell>
        <mxCell id="7uqhmthfOJYIlvBmELT8-14" value="" style="endArrow=classic;html=1;rounded=0;entryX=0.5;entryY=0;entryDx=0;entryDy=0;exitX=0;exitY=0.5;exitDx=0;exitDy=0;" parent="1" source="7uqhmthfOJYIlvBmELT8-15" target="WOxjRV0MUydzFHydmVLj-1" edge="1">
          <mxGeometry width="50" height="50" relative="1" as="geometry">
            <mxPoint x="-640" y="690" as="sourcePoint" />
            <mxPoint x="-590" y="640" as="targetPoint" />
            <Array as="points">
              <mxPoint x="-570" y="877" />
              <mxPoint x="-570" y="750" />
              <mxPoint x="-570" y="650" />
              <mxPoint x="-570" y="510" />
              <mxPoint x="-570" y="360" />
              <mxPoint x="-430" y="360" />
            </Array>
          </mxGeometry>
        </mxCell>
        <mxCell id="7uqhmthfOJYIlvBmELT8-18" value="Tabela SubCategoriasProdutos" style="swimlane;fontStyle=0;childLayout=stackLayout;horizontal=1;startSize=26;fillColor=none;horizontalStack=0;resizeParent=1;resizeParentMax=0;resizeLast=0;collapsible=1;marginBottom=0;whiteSpace=wrap;html=1;" parent="1" vertex="1">
          <mxGeometry x="200" y="360" width="180" height="52" as="geometry" />
        </mxCell>
        <mxCell id="7uqhmthfOJYIlvBmELT8-19" value="nome: CharField" style="text;strokeColor=none;fillColor=none;align=left;verticalAlign=top;spacingLeft=4;spacingRight=4;overflow=hidden;rotatable=0;points=[[0,0.5],[1,0.5]];portConstraint=eastwest;whiteSpace=wrap;html=1;" parent="7uqhmthfOJYIlvBmELT8-18" vertex="1">
          <mxGeometry y="26" width="180" height="26" as="geometry" />
        </mxCell>
        <mxCell id="7uqhmthfOJYIlvBmELT8-21" value="" style="endArrow=classic;html=1;rounded=0;entryX=0.5;entryY=0;entryDx=0;entryDy=0;exitX=1;exitY=0.5;exitDx=0;exitDy=0;" parent="1" source="7uqhmthfOJYIlvBmELT8-20" target="7uqhmthfOJYIlvBmELT8-18" edge="1">
          <mxGeometry width="50" height="50" relative="1" as="geometry">
            <mxPoint x="410" y="810" as="sourcePoint" />
            <mxPoint x="90" y="660" as="targetPoint" />
            <Array as="points">
              <mxPoint x="430" y="786" />
              <mxPoint x="430" y="700" />
              <mxPoint x="430" y="610" />
              <mxPoint x="430" y="480" />
              <mxPoint x="430" y="320" />
              <mxPoint x="290" y="320" />
            </Array>
          </mxGeometry>
        </mxCell>
        <mxCell id="7uqhmthfOJYIlvBmELT8-23" value="" style="endArrow=classic;html=1;rounded=0;entryX=0.5;entryY=0;entryDx=0;entryDy=0;exitX=0;exitY=0.5;exitDx=0;exitDy=0;" parent="1" source="WOxjRV0MUydzFHydmVLj-35" target="7uqhmthfOJYIlvBmELT8-1" edge="1">
          <mxGeometry width="50" height="50" relative="1" as="geometry">
            <mxPoint x="-300" y="680" as="sourcePoint" />
            <mxPoint x="-250" y="630" as="targetPoint" />
            <Array as="points">
              <mxPoint x="-240" y="699" />
              <mxPoint x="-240" y="590" />
              <mxPoint x="-430" y="590" />
            </Array>
          </mxGeometry>
        </mxCell>
        <mxCell id="7uqhmthfOJYIlvBmELT8-26" value="" style="endArrow=classic;html=1;rounded=0;entryX=0.5;entryY=0;entryDx=0;entryDy=0;exitX=1;exitY=0.5;exitDx=0;exitDy=0;" parent="1" source="WOxjRV0MUydzFHydmVLj-19" target="WOxjRV0MUydzFHydmVLj-9" edge="1">
          <mxGeometry width="50" height="50" relative="1" as="geometry">
            <mxPoint x="140" y="503" as="sourcePoint" />
            <mxPoint x="190" y="453" as="targetPoint" />
            <Array as="points">
              <mxPoint x="410" y="760" />
              <mxPoint x="410" y="600" />
              <mxPoint x="410" y="440" />
              <mxPoint x="290" y="440" />
            </Array>
          </mxGeometry>
        </mxCell>
        <mxCell id="7uqhmthfOJYIlvBmELT8-28" value="" style="endArrow=classic;html=1;rounded=0;entryX=0.5;entryY=0;entryDx=0;entryDy=0;exitX=1;exitY=0.5;exitDx=0;exitDy=0;" parent="1" source="7uqhmthfOJYIlvBmELT8-24" target="WOxjRV0MUydzFHydmVLj-17" edge="1">
          <mxGeometry width="50" height="50" relative="1" as="geometry">
            <mxPoint x="70" y="643" as="sourcePoint" />
            <mxPoint x="120" y="593" as="targetPoint" />
            <Array as="points">
              <mxPoint x="290" y="620" />
            </Array>
          </mxGeometry>
        </mxCell>
      </root>
    </mxGraphModel>
  </diagram>
</mxfile>
